<svg width="32" height="32" viewBox="0 0 32 32" fill="none" xmlns="http://www.w3.org/2000/svg">
<rect width="32" height="32" rx="4" fill="#EEEEEE"/>
<g clip-path="url(#clip0_2014_1440)">
<path d="M19.3333 12.6667H17.3333C16.9667 12.6667 16.6667 12.9667 16.6667 13.3333C16.6667 13.7 16.9667 14 17.3333 14H19.3333C20.4333 14 21.3333 14.9 21.3333 16C21.3333 17.1 20.4333 18 19.3333 18H17.3333C16.9667 18 16.6667 18.3 16.6667 18.6667C16.6667 19.0333 16.9667 19.3333 17.3333 19.3333H19.3333C21.1733 19.3333 22.6667 17.84 22.6667 16C22.6667 14.16 21.1733 12.6667 19.3333 12.6667ZM13.3333 16C13.3333 16.3667 13.6333 16.6667 14 16.6667H18C18.3667 16.6667 18.6667 16.3667 18.6667 16C18.6667 15.6333 18.3667 15.3333 18 15.3333H14C13.6333 15.3333 13.3333 15.6333 13.3333 16ZM14.6667 18H12.6667C11.5667 18 10.6667 17.1 10.6667 16C10.6667 14.9 11.5667 14 12.6667 14H14.6667C15.0333 14 15.3333 13.7 15.3333 13.3333C15.3333 12.9667 15.0333 12.6667 14.6667 12.6667H12.6667C10.8267 12.6667 9.33334 14.16 9.33334 16C9.33334 17.84 10.8267 19.3333 12.6667 19.3333H14.6667C15.0333 19.3333 15.3333 19.0333 15.3333 18.6667C15.3333 18.3 15.0333 18 14.6667 18Z" fill="#7811CA"/>
</g>
<defs>
<clipPath id="clip0_2014_1440">
<rect width="16" height="16" fill="white" transform="translate(8 8)"/>
</clipPath>
</defs>
</svg>
