<svg width="16" height="16" viewBox="0 0 16 16" fill="none" xmlns="http://www.w3.org/2000/svg">
<path fill-rule="evenodd" clip-rule="evenodd" d="M13.453 1.13919C9.88633 0.490713 6.232 0.490713 2.66537 1.13919C1.25268 1.39604 0.22583 2.62643 0.22583 4.06228V9.61889C0.22583 11.534 1.91565 13.0091 3.81325 12.7503C5.05651 12.5808 6.30739 12.486 7.55916 12.4661V14.3893C7.14292 14.4184 6.72859 14.484 6.32099 14.5859L5.27123 14.8483C5.00333 14.9153 4.84045 15.1867 4.90743 15.4546C4.9744 15.7225 5.24587 15.8854 5.51376 15.8184L6.56353 15.556C7.05452 15.4332 7.55684 15.3719 8.05916 15.3719C8.56149 15.3719 9.06381 15.4332 9.5548 15.556L10.6046 15.8184C10.8725 15.8854 11.1439 15.7225 11.2109 15.4546C11.2779 15.1867 11.115 14.9153 10.8471 14.8483L9.79733 14.5859C9.38973 14.484 8.97541 14.4184 8.55916 14.3893V12.4661C9.81094 12.486 11.0618 12.5808 12.3051 12.7503C14.2027 13.0091 15.8925 11.534 15.8925 9.61889V4.06228C15.8925 2.62643 14.8656 1.39604 13.453 1.13919ZM2.84426 2.12306C6.29259 1.49609 9.82573 1.49609 13.2741 2.12306C14.2113 2.29346 14.8925 3.10972 14.8925 4.06228V9.61889C14.8925 10.9281 13.7374 11.9364 12.4402 11.7595C10.9866 11.5613 9.52287 11.4622 8.05916 11.4622C6.59546 11.4622 5.13175 11.5613 3.67813 11.7595C2.38096 11.9364 1.22583 10.9281 1.22583 9.61889V4.06228C1.22583 3.10972 1.90706 2.29346 2.84426 2.12306Z" fill="black"/>
</svg>
