<svg width="201" height="150" viewBox="0 0 201 150" fill="none" xmlns="http://www.w3.org/2000/svg">
<g clip-path="url(#clip0_2_1034)">
<path d="M146.539 142.049H142.56L140.666 126.698H146.539V142.049Z" fill="#EC2AF0"/>
<path d="M148.64 148.945H145.786L145.276 146.25L143.972 148.945H136.403C136.04 148.945 135.687 148.829 135.394 148.614C135.102 148.399 134.886 148.096 134.778 147.75C134.67 147.403 134.676 147.031 134.794 146.688C134.912 146.345 135.137 146.049 135.436 145.843L141.48 141.668V138.944L147.838 139.323L148.64 148.945Z" fill="black"/>
<path d="M170.181 137.026L166.988 139.401L156.309 128.213L161.022 124.707L170.181 137.026Z" fill="#EC2AF0"/>
<path d="M175.981 141.306L173.691 143.01L171.674 141.151L172.235 144.092L166.161 148.609C165.87 148.826 165.518 148.944 165.155 148.946C164.792 148.947 164.438 148.833 164.145 148.62C163.851 148.406 163.634 148.104 163.524 147.759C163.415 147.413 163.418 147.041 163.535 146.697L165.894 139.74L164.269 137.554L169.597 134.064L175.981 141.306Z" fill="black"/>
<path d="M151.172 62.844C151.172 62.844 158.723 69.3681 155.239 87.9668L150.986 106.19L164.856 129.204L160.434 134.585L142.402 109.675L135.868 94.3461L134.034 67.0629L151.172 62.844Z" fill="black"/>
<path d="M139.47 98.7145L139.015 105.749L140.405 135.724L146.945 134.585L148.195 113.243L139.47 98.7145Z" fill="black"/>
<path d="M55.5469 145.659L59.1057 145.658L60.7985 131.93L55.5464 131.93L55.5469 145.659Z" fill="#EC2AF0"/>
<path d="M54.6392 144.496L55.6408 144.496L59.5515 142.906L61.6475 144.496H61.6478C62.8323 144.496 63.9683 144.967 64.8059 145.805C65.6435 146.642 66.114 147.778 66.1141 148.963V149.108L54.6394 149.109L54.6392 144.496Z" fill="black"/>
<path d="M69.3376 143.416L72.8088 144.199L77.4839 131.181L72.3607 130.024L69.3376 143.416Z" fill="#EC2AF0"/>
<path d="M68.708 142.082L69.6851 142.303L73.85 141.613L75.5443 143.626L75.5446 143.626C76.7 143.887 77.7044 144.596 78.3369 145.598C78.9694 146.6 79.1782 147.811 78.9174 148.967L78.8854 149.109L67.6924 146.581L68.708 142.082Z" fill="black"/>
<path d="M51.0396 61.7301C49.3711 66.763 49.5475 72.2261 51.4407 78.0894L52.2499 111.102C52.2499 111.102 51.0442 132.75 54.935 140.368H60.5777L63.3715 109.125L63.7223 88.1535L75.8198 105.846L68.1145 139.858L75.0594 140.478L87.5629 103.568L72.1361 67.7586L51.0396 61.7301Z" fill="black"/>
<path d="M116.113 47.3945C120.429 43.5046 126.848 41.5488 132.233 43.7299C126.71 46.7972 122.449 51.7197 120.204 57.6265C119.347 59.9077 118.631 62.5342 116.522 63.7555C115.21 64.5154 113.578 64.5526 112.107 64.1857C110.636 63.8188 109.287 63.0834 107.957 62.3553L107.579 62.3468C109.278 56.79 111.797 51.2843 116.113 47.3945Z" fill="#F5F5F5"/>
<path d="M132.203 43.8481C127.434 44.4645 122.98 46.5682 119.474 49.8604C118.707 50.5557 118.054 51.3677 117.54 52.2663C117.067 53.158 116.841 54.16 116.887 55.1682C116.91 56.1092 117.043 57.069 116.837 57.9993C116.724 58.4739 116.513 58.9194 116.216 59.3065C115.92 59.6937 115.545 60.0137 115.116 60.2457C114.062 60.8516 112.853 61.0426 111.665 61.1883C110.345 61.35 108.972 61.4972 107.83 62.2374C107.691 62.3271 107.56 62.1071 107.698 62.0175C109.686 60.7296 112.2 61.1982 114.337 60.3387C115.334 59.9376 116.217 59.2335 116.529 58.1691C116.802 57.2383 116.666 56.2484 116.634 55.2958C116.576 54.3129 116.759 53.3305 117.167 52.4346C117.634 51.5126 118.255 50.6769 119.002 49.9631C120.659 48.3294 122.563 46.9664 124.643 45.9241C127.011 44.7214 129.567 43.9326 132.201 43.5919C132.364 43.5709 132.365 43.8272 132.203 43.8481Z" fill="white"/>
<path d="M120.541 48.7339C120.069 48.0706 119.847 47.261 119.917 46.4496C119.986 45.6382 120.341 44.8779 120.919 44.3044C121.037 44.1887 121.222 44.3657 121.104 44.4815C120.565 45.0146 120.234 45.7228 120.171 46.4785C120.108 47.2342 120.317 47.9876 120.761 48.6026C120.857 48.7363 120.637 48.8669 120.541 48.7339Z" fill="white"/>
<path d="M116.812 54.6927C118.451 54.9831 120.139 54.645 121.54 53.7459C121.679 53.6567 121.81 53.8767 121.671 53.9658C120.212 54.8987 118.454 55.247 116.749 54.941C116.587 54.9117 116.651 54.6636 116.812 54.6927Z" fill="white"/>
<path d="M127.032 45.0603C127.161 45.3551 127.362 45.613 127.616 45.8111C127.869 46.0092 128.168 46.1412 128.485 46.1952C128.648 46.2224 128.584 46.4705 128.423 46.4435C128.072 46.3822 127.743 46.2361 127.462 46.0178C127.181 45.7996 126.958 45.5159 126.812 45.1916C126.796 45.1622 126.791 45.1277 126.8 45.0951C126.808 45.0625 126.828 45.0342 126.857 45.016C126.886 44.9988 126.921 44.9938 126.953 45.0021C126.986 45.0104 127.015 45.0313 127.032 45.0603Z" fill="white"/>
<path d="M138.163 62.4887C138.061 62.4746 137.959 62.4605 137.855 62.448C136.482 62.2656 135.095 62.1952 133.71 62.2373C133.603 62.2389 133.494 62.2421 133.387 62.2467C130.051 62.384 126.769 63.1395 123.708 64.475C122.491 65.0075 121.316 65.6319 120.193 66.3427C118.643 67.3245 117.04 68.5124 115.307 68.9128C115.126 68.9566 114.943 68.9892 114.759 69.0104L107.598 62.8091C107.589 62.7869 107.578 62.7662 107.569 62.7438L107.272 62.5093C107.327 62.4686 107.385 62.4276 107.441 62.3869C107.473 62.3631 107.506 62.3408 107.538 62.317C107.56 62.3016 107.582 62.2863 107.601 62.2712C107.608 62.266 107.615 62.2609 107.621 62.2574C107.64 62.2423 107.659 62.2302 107.677 62.2167C108.002 61.9865 108.329 61.7581 108.658 61.5316C108.66 61.53 108.66 61.53 108.663 61.5297C111.157 59.7801 113.849 58.3324 116.684 57.2172C116.769 57.1851 116.856 57.1513 116.944 57.122C118.221 56.6472 119.534 56.2776 120.871 56.0168C121.604 55.8764 122.343 55.7731 123.086 55.7074C125.006 55.5414 126.94 55.6784 128.817 56.1135C132.56 56.9815 135.983 59.0368 138.011 62.2423C138.063 62.3243 138.113 62.405 138.163 62.4887Z" fill="#F5F5F5"/>
<path d="M138.069 62.5656C133.889 60.186 129.067 59.1838 124.286 59.7014C123.255 59.7945 122.245 60.0497 121.293 60.4574C120.378 60.8846 119.595 61.5488 119.024 62.3811C118.477 63.1465 118.005 63.9928 117.28 64.6116C116.905 64.9229 116.468 65.1513 115.998 65.2817C115.528 65.4122 115.036 65.4419 114.554 65.3688C113.348 65.218 112.268 64.6427 111.231 64.0434C110.08 63.3779 108.895 62.6685 107.537 62.5718C107.373 62.56 107.401 62.3054 107.565 62.3171C109.927 62.4855 111.653 64.3739 113.876 64.9744C114.914 65.2545 116.042 65.2237 116.932 64.5618C117.711 63.9831 118.198 63.1107 118.746 62.331C119.291 61.5109 120.028 60.8367 120.894 60.3674C121.822 59.9125 122.821 59.6189 123.847 59.4991C126.154 59.1925 128.494 59.2505 130.783 59.671C133.397 60.1365 135.913 61.0458 138.221 62.3597C138.364 62.4411 138.21 62.6465 138.069 62.5656Z" fill="white"/>
<path d="M125.815 59.4441C125.838 58.63 126.148 57.8503 126.692 57.2442C127.236 56.6381 127.977 56.245 128.784 56.1353C128.947 56.1136 128.989 56.3664 128.825 56.3881C128.074 56.489 127.383 56.8551 126.878 57.4206C126.373 57.986 126.086 58.7135 126.07 59.4716C126.066 59.6364 125.812 59.6079 125.815 59.4441Z" fill="white"/>
<path d="M119.251 61.9565C120.385 63.1752 121.936 63.9218 123.596 64.0474C123.76 64.0597 123.733 64.3143 123.568 64.302C121.842 64.1681 120.229 63.3879 119.052 62.117C118.939 61.9958 119.14 61.8359 119.251 61.9565Z" fill="white"/>
<path d="M133.21 60.4196C133.135 60.7328 133.14 61.0595 133.223 61.3704C133.307 61.6813 133.466 61.9666 133.687 62.2008C133.8 62.3205 133.6 62.4803 133.487 62.3613C133.245 62.1015 133.069 61.7862 132.976 61.4429C132.884 61.0996 132.876 60.7388 132.955 60.392C132.96 60.3587 132.977 60.3285 133.003 60.3074C133.029 60.2863 133.063 60.276 133.096 60.2785C133.13 60.2823 133.161 60.2993 133.182 60.3257C133.203 60.3521 133.213 60.3859 133.21 60.4196Z" fill="white"/>
<path d="M12.3866 145.409C12.0505 146.671 11.1672 147.721 10.1008 148.486C9.92693 148.611 9.74842 148.727 9.56759 148.836C9.51196 148.869 9.45631 148.903 9.39836 148.934C9.33576 148.971 9.27317 149.005 9.21058 149.038H4.1961C4.10569 148.855 4.0176 148.669 3.9295 148.486C1.78044 143.969 0.271234 139.096 0.528565 134.131C0.630658 132.206 1.03513 130.309 1.72712 128.509C3.10419 124.922 5.61722 121.817 9.0738 120.255C9.15957 120.215 9.24999 120.176 9.33808 120.139C9.31026 120.238 9.28244 120.336 9.25462 120.435C8.88379 121.771 8.62174 123.135 8.47104 124.514C8.45713 124.62 8.44554 124.727 8.43627 124.836C8.10691 128.16 8.39937 131.517 9.29867 134.734C9.30099 134.741 9.3033 134.751 9.30563 134.758C9.50269 135.469 9.73143 136.17 9.99184 136.861C10.1958 137.405 10.4161 137.943 10.6572 138.472C11.6633 140.691 13.0126 143.056 12.3866 145.409Z" fill="#F5F5F5"/>
<path d="M9.40059 120.243C9.35191 120.308 9.30321 120.37 9.25454 120.435C8.2363 121.785 7.37165 123.244 6.6766 124.785C6.6395 124.862 6.60473 124.938 6.57459 125.017C5.62223 127.169 5.01061 129.456 4.76168 131.797C4.75899 131.813 4.75744 131.829 4.75705 131.845C4.69909 132.393 4.66432 132.944 4.65041 133.496C4.59886 134.531 4.71073 135.567 4.98192 136.566C5.22919 137.382 5.66249 138.13 6.24771 138.75C6.30567 138.813 6.36363 138.875 6.42622 138.936C6.47259 138.984 6.52359 139.033 6.57227 139.079C7.04057 139.527 7.55291 139.942 7.99339 140.422C8.19528 140.637 8.3776 140.87 8.53819 141.118C8.79448 141.532 8.96003 141.997 9.02397 142.481C9.0879 142.964 9.04875 143.456 8.90911 143.923C8.59382 145.096 7.87284 146.086 7.13562 147.03C6.76701 147.503 6.38681 147.981 6.05761 148.486C5.93707 148.667 5.82578 148.85 5.72379 149.038H5.43168C5.52905 148.85 5.6357 148.667 5.75161 148.486C6.59779 147.153 7.80098 146.007 8.4246 144.54C8.84653 143.55 8.97404 142.428 8.44083 141.456C8.28456 141.174 8.09547 140.91 7.87749 140.672C7.45324 140.192 6.94553 139.782 6.48419 139.348C6.36828 139.239 6.25468 139.128 6.14572 139.012C5.56805 138.425 5.12228 137.722 4.8382 136.949C4.51649 135.967 4.3644 134.937 4.38845 133.904C4.38845 133.246 4.42323 132.583 4.48814 131.924C4.4951 131.841 4.50437 131.755 4.51364 131.669C4.98774 127.525 6.56226 123.584 9.07373 120.255C9.12009 120.19 9.16878 120.127 9.21746 120.064C9.31713 119.935 9.50028 120.115 9.40059 120.243Z" fill="white"/>
<path d="M4.60726 131.946C3.80427 131.811 3.07537 131.395 2.55073 130.772C2.02609 130.15 1.73988 129.361 1.74319 128.546C1.74364 128.513 1.75695 128.481 1.78033 128.458C1.80371 128.434 1.83533 128.421 1.86852 128.42C1.90172 128.419 1.9339 128.431 1.95829 128.454C1.98268 128.476 1.99737 128.508 1.99926 128.541C1.99477 129.299 2.26146 130.034 2.75118 130.613C3.24091 131.192 3.92143 131.577 4.6699 131.698C4.83252 131.724 4.76895 131.972 4.60726 131.946Z" fill="white"/>
<path d="M6.18345 138.797C7.54767 137.843 8.50237 136.41 8.85717 134.784C8.89219 134.623 9.14043 134.685 9.10546 134.846C8.73309 136.538 7.73655 138.027 6.31472 139.017C6.17914 139.111 6.0486 138.891 6.18345 138.797Z" fill="white"/>
<path d="M6.59992 124.758C6.89974 124.875 7.22391 124.916 7.54331 124.876C7.86271 124.837 8.16735 124.719 8.42986 124.533C8.56418 124.437 8.69458 124.657 8.56113 124.753C8.27014 124.957 7.93354 125.087 7.58074 125.131C7.22795 125.175 6.8697 125.133 6.53728 125.006C6.50495 124.997 6.47736 124.976 6.46012 124.947C6.44288 124.918 6.43728 124.884 6.44446 124.851C6.45292 124.818 6.47399 124.79 6.5031 124.772C6.53222 124.755 6.56701 124.75 6.59992 124.758Z" fill="white"/>
<path d="M26.7926 129.209C26.7115 129.272 26.628 129.334 26.5469 129.399C25.4462 130.242 24.4158 131.172 23.4658 132.182C23.3917 132.258 23.3175 132.337 23.2456 132.416L23.2433 132.418C20.9908 134.864 19.2098 137.704 17.99 140.798L17.9831 140.818C17.9808 140.825 17.9784 140.83 17.9761 140.837C17.4926 142.075 17.1028 143.348 16.81 144.644C16.5272 145.91 16.2954 147.267 15.8526 148.486C15.7853 148.674 15.7112 148.859 15.6323 149.038H5.3252C5.35997 148.855 5.39706 148.669 5.43416 148.486C5.95847 145.799 6.77794 143.179 7.87764 140.672C7.91473 140.589 7.95182 140.505 7.99355 140.422C8.56126 139.183 9.22881 137.993 9.9896 136.863L9.98977 136.862L9.99027 136.861L9.99103 136.861L9.99192 136.861C10.4097 136.244 10.8585 135.649 11.3365 135.078C12.5764 133.602 14.041 132.331 15.6764 131.312C15.6857 131.305 15.6972 131.3 15.7065 131.294C18.9614 129.274 22.819 128.312 26.5075 129.144H26.5098C26.6048 129.165 26.6976 129.186 26.7926 129.209Z" fill="#F5F5F5"/>
<path d="M26.7808 129.332C26.702 129.353 26.6232 129.376 26.5467 129.399C24.922 129.864 23.3537 130.507 21.8707 131.317C21.7965 131.356 21.7223 131.398 21.6481 131.44C19.5987 132.584 17.7383 134.038 16.1329 135.75C16.1317 135.751 16.1308 135.753 16.1306 135.755C16.1121 135.773 16.0912 135.794 16.075 135.813C15.704 136.211 15.347 136.626 15.0085 137.053C14.3465 137.848 13.813 138.743 13.4275 139.703C13.1329 140.504 13.0289 141.362 13.1238 142.21C13.1307 142.295 13.1423 142.379 13.1539 142.465C13.1632 142.532 13.1725 142.599 13.184 142.669C13.3371 143.598 13.6013 144.531 13.5272 145.479C13.482 145.965 13.3345 146.436 13.0944 146.86C12.8542 147.285 12.5269 147.654 12.1339 147.944C11.8667 148.15 11.5811 148.332 11.2807 148.486C10.8513 148.708 10.4038 148.892 9.94307 149.038H9.03198C9.15485 149.003 9.2754 148.968 9.39827 148.934C9.83429 148.811 10.2624 148.661 10.6803 148.486C10.919 148.386 11.1513 148.272 11.3758 148.143C12.3077 147.607 13.0844 146.787 13.2466 145.69C13.3881 144.73 13.1145 143.77 12.9522 142.831C12.9244 142.669 12.8989 142.509 12.885 142.349C12.7743 141.536 12.8415 140.708 13.082 139.923C13.4156 138.945 13.9143 138.03 14.5565 137.22C14.9537 136.692 15.3778 136.185 15.8269 135.701C15.8825 135.639 15.9405 135.576 16.0008 135.513C17.6399 133.789 19.5326 132.324 21.6134 131.171H21.6157C23.1629 130.309 24.8042 129.629 26.5073 129.144H26.5096C26.5861 129.121 26.6649 129.098 26.7414 129.077C26.9014 129.035 26.9385 129.288 26.7808 129.332Z" fill="white"/>
<path d="M15.909 135.789C15.3491 135.198 15.0175 134.427 14.9735 133.614C14.9295 132.801 15.176 131.998 15.6688 131.35C15.769 131.219 15.977 131.369 15.8767 131.5C15.4166 132.103 15.1871 132.85 15.2296 133.607C15.2721 134.364 15.5839 135.081 16.1085 135.629C16.2224 135.748 16.0223 135.908 15.909 135.789Z" fill="white"/>
<path d="M13.0436 142.208C14.707 142.268 16.3318 141.699 17.5942 140.614C17.7192 140.506 17.8796 140.706 17.7547 140.813C16.439 141.94 14.7468 142.529 13.016 142.463C12.851 142.456 12.8795 142.202 13.0436 142.208Z" fill="white"/>
<path d="M21.8272 131.25C21.9962 131.524 22.2306 131.751 22.5093 131.912C22.788 132.073 23.1023 132.162 23.4239 132.172C23.5889 132.176 23.5603 132.431 23.3964 132.426C23.041 132.414 22.694 132.315 22.3857 132.138C22.0774 131.961 21.8172 131.711 21.6277 131.41C21.6075 131.383 21.5982 131.35 21.6018 131.316C21.6055 131.283 21.6217 131.252 21.6472 131.23C21.6737 131.209 21.7075 131.199 21.7412 131.203C21.7749 131.207 21.8058 131.223 21.8272 131.25Z" fill="white"/>
<path d="M106.303 40.1423C106.065 40.4553 105.761 40.7123 105.413 40.8953C105.065 41.0782 104.682 41.1826 104.289 41.2011C103.896 41.2196 103.504 41.1518 103.141 41.0024C102.777 40.853 102.45 40.6257 102.184 40.3365L93.4209 44.1483L94.2745 39.2557L102.465 36.386C102.981 35.9707 103.631 35.759 104.292 35.791C104.953 35.8229 105.579 36.0963 106.052 36.5593C106.525 37.0223 106.812 37.6428 106.858 38.3032C106.905 38.9635 106.707 39.6179 106.303 40.1423Z" fill="#EC2AF0"/>
<path d="M100.455 41.6699L80.1008 50.7376L80.0572 50.722L56.8587 42.4541C55.1307 41.5509 53.8133 40.0212 53.1762 38.1782C52.5392 36.3352 52.6306 34.3184 53.4319 32.5406C53.876 31.5584 54.5231 30.6814 55.3305 29.9673C56.138 29.2533 57.0875 28.7183 58.1165 28.3977C59.1456 28.0771 60.2309 27.9781 61.3009 28.1073C62.371 28.2364 63.4016 28.5908 64.3249 29.147L81.5889 39.5481L98.3296 37.3782L100.455 41.6699Z" fill="#F5F5F5"/>
<path d="M200.5 149.226C200.5 149.262 200.493 149.298 200.479 149.331C200.465 149.365 200.445 149.395 200.42 149.421C200.394 149.447 200.363 149.467 200.33 149.481C200.296 149.495 200.26 149.502 200.224 149.502H0.783687C0.710519 149.502 0.640352 149.473 0.588615 149.421C0.536878 149.369 0.507812 149.299 0.507812 149.226C0.507812 149.153 0.536878 149.082 0.588615 149.031C0.640352 148.979 0.710519 148.95 0.783687 148.95H200.224C200.26 148.95 200.296 148.957 200.33 148.971C200.363 148.984 200.394 149.005 200.42 149.03C200.445 149.056 200.465 149.087 200.479 149.12C200.493 149.154 200.5 149.189 200.5 149.226Z" fill="#CCCCCC"/>
<path d="M73.1421 68.816L52.6239 65.5335C52.0858 65.3612 51.5913 65.0744 51.1744 64.6928C50.7576 64.3113 50.4282 63.844 50.209 63.3232C49.9897 62.8023 49.8857 62.2402 49.9042 61.6753C49.9226 61.1105 50.0631 60.5564 50.3159 60.0509L51.2464 58.1895L50.8849 38.6326C50.8414 36.0887 51.4684 33.5783 52.703 31.3537C53.9376 29.1292 55.7362 27.269 57.9178 25.9605L59.9187 24.7639L60.9299 22.1956L70.2541 22.4231L70.2813 25.7914L73.6205 31.1169L73.6204 31.139L73.4109 60.125L72.4906 63.1163L73.8821 66.5956L73.1421 68.816Z" fill="#F5F5F5"/>
<path d="M66.4459 19.0021C71.1248 19.0021 74.9179 15.2085 74.9179 10.5289C74.9179 5.84925 71.1248 2.05566 66.4459 2.05566C61.7669 2.05566 57.9739 5.84925 57.9739 10.5289C57.9739 15.2085 61.7669 19.0021 66.4459 19.0021Z" fill="#EC2AF0"/>
<path d="M57.624 12.376C57.3713 11.3113 57.4873 9.81311 57.6301 8.7411C58.0045 5.93062 59.565 3.25877 61.936 1.67614C62.3855 1.33464 62.9197 1.12232 63.481 1.06206C64.0419 1.03864 64.6499 1.33894 64.822 1.87334C64.9633 1.52064 65.1754 1.20064 65.4452 0.93309C65.7149 0.665545 66.0367 0.456131 66.3905 0.317779C67.1013 0.045423 67.8657 -0.0575754 68.6232 0.0169478C70.0914 0.137989 71.4995 0.654329 72.698 1.51117C73.8965 2.36801 74.8407 3.53338 75.4304 4.88362C75.6567 5.42126 76.2887 3.43536 76.5754 3.94335C76.8389 4.47138 77.2986 4.8753 77.856 5.06868C78.4178 5.22546 78.646 7.54041 78.8671 7.00061C79.0386 7.39953 79.1064 7.83539 79.0642 8.26759C79.022 8.69978 78.871 9.11425 78.6255 9.47241C78.38 9.83056 78.0478 10.1207 77.6599 10.3159C77.2721 10.5111 76.8411 10.605 76.4073 10.5887C75.8355 10.5673 75.2887 10.357 74.7237 10.2664C72.7033 9.94267 70.5601 11.4079 70.1281 13.4083C69.9735 12.8298 69.7264 12.2801 69.3966 11.7804C69.2291 11.5319 69.0047 11.3269 68.7421 11.1826C68.4795 11.0383 68.1862 10.9588 67.8866 10.9507C67.3118 10.9722 66.8065 11.348 66.4335 11.786C66.0605 12.224 65.7804 12.7351 65.4047 13.1707C64.3022 14.4489 62.8111 17.4299 61.24 17.2125C60.0001 17.041 57.969 13.8297 57.624 12.376Z" fill="black"/>
<path d="M117.658 49.7439C117.718 49.3576 117.638 48.9628 117.434 48.6295C117.23 48.2961 116.915 48.0458 116.544 47.9229L93.7287 40.3231C93.51 40.25 93.2784 40.2234 93.0488 40.2451L87.3303 40.7859L84.049 41.0972L77.9939 41.6695C77.6283 41.7045 77.2847 41.8598 77.0169 42.1112C76.749 42.3625 76.5722 42.6956 76.514 43.0583L73.4397 62.2652C73.3815 62.6399 73.4528 63.0231 73.6418 63.3518C73.8308 63.6804 74.1262 63.9348 74.4793 64.0728L97.5325 72.9727C97.6407 73.0147 97.7531 73.0449 97.8678 73.0628C98.0347 73.0898 98.2048 73.0911 98.3722 73.0666L113.269 70.8584C113.62 70.8076 113.945 70.6448 114.197 70.3942C114.448 70.1437 114.613 69.8187 114.665 69.4675L117.658 49.7439Z" fill="white"/>
<path d="M75.002 62.7195L98.0551 71.619C98.0887 71.6323 98.1253 71.6365 98.1611 71.6314L113.055 69.4236C113.1 69.4175 113.141 69.3972 113.172 69.3658C113.204 69.3343 113.224 69.2934 113.23 69.2493L116.226 49.5255C116.232 49.4773 116.222 49.4283 116.197 49.3868C116.172 49.3453 116.133 49.3139 116.087 49.2979L115.933 49.246L93.2702 41.6998C93.2598 41.6962 93.2491 41.6936 93.2383 41.6921C93.2207 41.6889 93.2028 41.688 93.185 41.6894L79.2371 43.0094L78.1303 43.1133C78.0849 43.1181 78.0423 43.1377 78.009 43.169C77.9758 43.2003 77.9537 43.2416 77.9461 43.2867L74.8722 62.4929C74.8647 62.5398 74.8735 62.5879 74.8971 62.6291C74.9207 62.6703 74.9577 62.7023 75.002 62.7195Z" fill="#7811CA"/>
<path d="M79.2371 43.0094L93.1849 41.6894C93.2027 41.688 93.2206 41.6889 93.2382 41.6921C93.2491 41.6936 93.2598 41.6962 93.2701 41.6998L115.933 49.246L109.955 49.8789L107.718 50.1146L101.352 50.7873C101.333 50.7883 101.314 50.788 101.296 50.7867C101.285 50.7832 101.273 50.7798 101.26 50.7762L79.2371 43.0094Z" fill="black"/>
<path d="M74.4789 64.0741L97.532 72.9735C97.6405 73.0153 97.7533 73.0448 97.8683 73.0615C98.0353 73.0891 98.2055 73.0912 98.3731 73.0678L113.267 70.86C113.619 70.8088 113.945 70.6458 114.196 70.3951C114.448 70.1443 114.612 69.8193 114.665 69.4679L117.658 49.7439C117.702 49.4531 117.669 49.1558 117.561 48.8821C117.546 48.8457 117.531 48.8094 117.513 48.7751C117.394 48.5252 117.214 48.3099 116.988 48.1496C116.852 48.0521 116.703 47.9758 116.544 47.9232L116.517 47.9136L93.73 40.323C93.6369 40.2933 93.5418 40.2702 93.4455 40.2539C93.3138 40.2352 93.1803 40.2326 93.048 40.2462L87.3304 40.7852L84.0494 41.0982L77.9933 41.6701C77.7455 41.6932 77.5063 41.7723 77.2935 41.9013C77.2771 41.9093 77.2614 41.9187 77.2466 41.9294C77.236 41.9363 77.226 41.9439 77.2165 41.9522C77.0307 42.079 76.8726 42.2424 76.752 42.4323C76.6314 42.6222 76.5506 42.8346 76.5148 43.0567L73.4384 62.265C73.3803 62.6399 73.4517 63.0235 73.6408 63.3524C73.83 63.6813 74.1256 63.9358 74.4789 64.0741ZM76.9229 43.1237C76.9603 42.8935 77.0624 42.6786 77.2173 42.5043C77.2642 42.4482 77.3167 42.397 77.3739 42.3516C77.5303 42.2251 77.7153 42.1388 77.9126 42.1002C77.9516 42.0922 77.991 42.0866 78.0307 42.0836L88.2276 41.1201L93.0879 40.6576C93.1208 40.6537 93.151 40.6543 93.1815 40.6526C93.2551 40.651 93.3286 40.6565 93.4012 40.6689C93.4679 40.6775 93.5335 40.6932 93.597 40.7155L116.411 48.3157C116.429 48.3221 116.445 48.3283 116.463 48.3346C116.67 48.4118 116.852 48.5445 116.99 48.7181C117.098 48.851 117.177 49.0053 117.222 49.1709C117.267 49.3365 117.276 49.5098 117.249 49.6792L114.254 69.4053C114.215 69.6684 114.092 69.9119 113.904 70.0998C113.716 70.2878 113.472 70.4102 113.209 70.4491L98.3122 72.6567C98.0991 72.6873 97.8817 72.6625 97.681 72.5848L74.6276 63.6876C74.3634 63.5835 74.1424 63.3926 74.0009 63.1463C73.8594 62.9 73.8058 62.6129 73.8489 62.3322L76.9229 43.1237Z" fill="#292929"/>
<path d="M77.1669 42.0569C77.1791 42.022 77.2005 41.991 77.229 41.9674C77.2385 41.9598 77.2484 41.953 77.2589 41.9469C77.2686 41.9432 77.2785 41.9371 77.2881 41.9334C77.3344 41.9148 77.3859 41.9139 77.4328 41.9309L77.9126 42.1002L101.354 50.3706L106.841 49.7909L109.911 49.467L116.409 48.779L116.99 48.7181L117.103 48.7056C117.151 48.7011 117.2 48.7138 117.24 48.7415C117.281 48.7692 117.31 48.8101 117.323 48.8571C117.327 48.8679 117.329 48.8791 117.33 48.8903C117.334 48.9349 117.324 48.9799 117.301 49.0185C117.278 49.057 117.244 49.0871 117.202 49.104C117.184 49.1117 117.164 49.1169 117.145 49.1195L116.354 49.2024L109.955 49.8789L107.718 50.1146L101.352 50.7873C101.333 50.7882 101.314 50.788 101.296 50.7866C101.285 50.7832 101.273 50.7798 101.26 50.7762L77.3739 42.3516L77.2928 42.3228C77.2743 42.3167 77.257 42.3072 77.242 42.2947C77.2058 42.2682 77.1791 42.2308 77.1656 42.1881C77.1521 42.1453 77.1525 42.0994 77.1669 42.0569Z" fill="#292929"/>
<path d="M97.9311 73.1219C97.8771 73.1133 97.8288 73.0837 97.7965 73.0396C97.7643 72.9955 97.7508 72.9404 97.7589 72.8864L101.124 50.5501C101.133 50.4958 101.162 50.4469 101.206 50.4143C101.25 50.3816 101.306 50.3679 101.36 50.3761L101.362 50.3764C101.416 50.385 101.464 50.4146 101.497 50.4587C101.529 50.5028 101.542 50.5579 101.534 50.6119L98.1687 72.9482C98.1605 73.0025 98.131 73.0514 98.0868 73.084C98.0426 73.1166 97.9872 73.1304 97.9329 73.1222L97.9311 73.1219Z" fill="#292929"/>
<path d="M106.462 71.705L104.223 71.9412L106.842 49.7903C106.842 49.7903 109.831 49.249 109.911 49.466C109.96 49.5956 106.483 71.5629 106.462 71.705Z" fill="#292929"/>
<path d="M77.2934 42.3226L77.2332 52.4241L95.1132 59.2381L101.534 50.6119L77.2934 42.3226Z" fill="#292929"/>
<path d="M116.99 48.7184C116.841 48.5305 116.64 48.3905 116.412 48.3157L93.5981 40.7158C93.5341 40.6943 93.4683 40.6782 93.4015 40.6679C93.3288 40.6554 93.255 40.6499 93.1812 40.6514L93.2182 40.4202L93.4465 40.2548L98.864 36.332L116.956 41.8774L116.987 48.1497L116.99 48.7184Z" fill="#292929"/>
<path d="M78.2048 58.5389C78.2305 58.5414 78.2558 58.5467 78.2803 58.5548L85.2801 60.8541C85.3678 60.8829 85.4404 60.9453 85.482 61.0276C85.5236 61.11 85.5309 61.2054 85.5021 61.2931C85.4733 61.3807 85.411 61.4534 85.3286 61.495C85.2463 61.5366 85.1509 61.5439 85.0632 61.5151L78.0635 59.2158C77.9822 59.1891 77.9136 59.1333 77.8708 59.0593C77.8281 58.9852 77.8141 58.8979 77.8316 58.8142C77.849 58.7304 77.8968 58.6561 77.9656 58.6053C78.0345 58.5545 78.1196 58.5309 78.2048 58.5389Z" fill="white"/>
<path d="M106.447 100.915C107.983 100.915 109.229 99.6692 109.229 98.1325C109.229 96.5959 107.983 95.3502 106.447 95.3502C104.91 95.3502 103.665 96.5959 103.665 98.1325C103.665 99.6692 104.91 100.915 106.447 100.915Z" fill="#F5F5F5"/>
<path d="M35.5071 111.117C37.0435 111.117 38.289 109.871 38.289 108.334C38.289 106.798 37.0435 105.552 35.5071 105.552C33.9706 105.552 32.7251 106.798 32.7251 108.334C32.7251 109.871 33.9706 111.117 35.5071 111.117Z" fill="#F5F5F5"/>
<path d="M93.4643 19.0674C95.0008 19.0674 96.2463 17.8217 96.2463 16.2851C96.2463 14.7484 95.0008 13.5027 93.4643 13.5027C91.9279 13.5027 90.6824 14.7484 90.6824 16.2851C90.6824 17.8217 91.9279 19.0674 93.4643 19.0674Z" fill="#F5F5F5"/>
<path d="M98.0288 62.631C97.6682 62.7877 97.2777 62.8634 96.8847 62.8528C96.4917 62.8422 96.1058 62.7455 95.7543 62.5696C95.4027 62.3937 95.0939 62.1429 94.8497 61.8347C94.6056 61.5266 94.4319 61.1686 94.341 60.7861L84.8333 59.8254L87.97 55.975L96.5178 57.4776C97.1705 57.3675 97.8408 57.5006 98.4019 57.8518C98.9629 58.203 99.3757 58.7479 99.5619 59.3831C99.7482 60.0183 99.695 60.6998 99.4124 61.2984C99.1299 61.897 98.6376 62.3712 98.0288 62.631Z" fill="#EC2AF0"/>
<path d="M92.1807 61.1036L69.9927 59.0589L69.9622 59.024L53.7688 40.4665C52.7031 38.8335 52.3019 36.8549 52.6472 34.9357C52.9926 33.0166 54.0584 31.302 55.6265 30.1432C56.4941 29.5036 57.4874 29.055 58.5408 28.8271C59.5943 28.5991 60.684 28.5968 61.7384 28.8204C62.7928 29.0441 63.7879 29.4885 64.6582 30.1245C65.5284 30.7604 66.2542 31.5735 66.7876 32.5102L76.7615 50.0262L92.4251 56.3205L92.1807 61.1036Z" fill="#F5F5F5"/>
<path d="M147.872 25.416C147.321 21.3738 146.63 17.0338 143.779 14.1158C142.874 13.1899 141.792 12.4568 140.596 11.9606C139.401 11.4645 138.117 11.2157 136.823 11.2291C135.529 11.2425 134.251 11.5178 133.066 12.0386C131.881 12.5594 130.814 13.3147 129.929 14.2591C127.854 16.4731 126.937 19.5819 126.853 22.6154C126.769 25.6489 127.445 28.6487 128.194 31.5893C132.16 31.6685 136.096 30.8936 139.736 29.3172C140.646 28.9221 141.542 28.4754 142.503 28.2306C143.465 27.9858 144.15 28.6018 145.045 29.0313L145.536 28.091C145.938 28.8391 147.182 28.6174 147.634 27.898C148.085 27.1787 147.986 26.2575 147.872 25.416Z" fill="black"/>
<path d="M132.152 47.9782L115.953 48.3247C115.704 47.8946 115.336 47.5461 114.892 47.3216C114.449 47.0971 113.95 47.0062 113.457 47.0601C112.963 47.114 112.495 47.3103 112.111 47.6251C111.726 47.9398 111.442 48.3596 111.292 48.8332C111.141 49.3068 111.132 49.8139 111.265 50.2927C111.397 50.7715 111.666 51.2014 112.039 51.5301C112.411 51.8589 112.871 52.0722 113.363 52.1442C113.855 52.2162 114.356 52.1438 114.808 51.9357C116.956 52.0578 133.765 54.4438 134.767 52.9062C135.785 51.3455 141.218 45.8376 141.218 45.8376L137.042 39.8918L132.152 47.9782Z" fill="#EC2AF0"/>
<path d="M136.1 29.4153C140.303 29.4153 143.711 26.0073 143.711 21.8032C143.711 17.5992 140.303 14.1912 136.1 14.1912C131.896 14.1912 128.489 17.5992 128.489 21.8032C128.489 26.0073 131.896 29.4153 136.1 29.4153Z" fill="#EC2AF0"/>
<path d="M148.29 36.4496C147.393 34.6643 146.957 32.4588 145.045 31.88C143.754 31.4892 138.531 32.0749 137.355 32.7347C135.397 33.8321 137.171 35.8885 136.016 37.8129C134.761 39.905 131.349 44.1033 130.094 46.1953C129.23 47.6335 132.138 51.855 131.671 53.4661C131.204 55.0772 131.182 56.8854 131.977 58.3624C132.688 59.6843 131.659 60.8537 132.374 62.1735C133.119 63.546 134.032 68.6779 133.339 70.0772L132.875 71.4684C137.477 71.7387 141.345 66.2412 145.918 65.6621C147.053 65.5182 148.233 65.3303 149.169 64.671C150.547 63.6998 151.092 61.9375 151.433 60.2858C153.072 52.2122 151.966 43.8223 148.29 36.4496Z" fill="#292929"/>
<path d="M155.188 55.3004C154.547 53.5509 153.387 45.9015 153.387 45.9015L146.125 45.6886L149.675 54.4465L139.987 68.0111C139.987 68.0111 140.005 68.0409 140.038 68.094C139.528 68.0123 139.006 68.0862 138.539 68.3062C138.073 68.5262 137.683 68.8819 137.422 69.3268C137.161 69.7718 137.04 70.2852 137.076 70.8C137.111 71.3147 137.301 71.8068 137.621 72.2118C137.94 72.6168 138.375 72.9159 138.867 73.0699C139.359 73.2239 139.887 73.2257 140.38 73.075C140.873 72.9243 141.31 72.6282 141.632 72.2254C141.955 71.8225 142.148 71.3317 142.187 70.8172C142.222 70.8377 142.264 70.8451 142.305 70.8381C142.345 70.8312 142.382 70.8103 142.409 70.7791C143.487 69.4261 155.829 57.05 155.188 55.3004Z" fill="#EC2AF0"/>
<path d="M155.926 50.4696C155.26 47.656 154.588 44.8271 153.465 42.1629C152.341 39.4988 150.732 36.9825 148.469 35.1826C147.746 34.6072 146.937 34.0993 146.03 33.9204C145.124 33.7415 144.102 33.9417 143.465 34.6117C142.446 35.6837 142.752 37.4045 143.126 38.8357C144.228 43.0557 145.33 47.2757 146.433 51.4957C149.615 51.1582 152.798 50.8208 155.981 50.4834L155.926 50.4696Z" fill="#292929"/>
<path d="M145.425 22.8591C145.145 21.0176 144.852 19.1608 144.194 17.4269C143.535 15.6929 142.474 14.0689 140.951 13.0867C138.541 11.5315 135.419 11.8315 132.717 12.726C130.626 13.4178 128.586 14.4693 127.112 16.1597C125.638 17.8502 124.81 20.2623 125.358 22.4726C128.241 21.7913 131.125 21.11 134.008 20.4288L133.692 20.6518C134.639 21.1239 135.465 21.8055 136.109 22.6449C136.753 23.4842 137.198 24.4593 137.408 25.496C137.615 26.5454 137.585 27.6274 137.322 28.6639C137.059 29.7004 136.568 30.6654 135.886 31.4892C137.853 30.7915 139.819 30.0939 141.785 29.3963C142.999 28.9657 144.298 28.4695 145.018 27.3651C145.852 26.0845 145.658 24.3873 145.425 22.8591Z" fill="black"/>
</g>
<defs>
<clipPath id="clip0_2_1034">
<rect width="200" height="149.502" fill="white" transform="translate(0.5)"/>
</clipPath>
</defs>
</svg>
