<svg width="200" height="225" viewBox="0 0 200 225" fill="none" xmlns="http://www.w3.org/2000/svg">
<g clip-path="url(#clip0_2014_1570)">
<path d="M113.381 173.237C161.22 173.237 200 134.457 200 86.6187C200 38.7805 161.22 0 113.381 0C65.5432 0 26.7627 38.7805 26.7627 86.6187C26.7627 134.457 65.5432 173.237 113.381 173.237Z" fill="#F5F5F5"/>
<path d="M169.986 38.7357H11.312C10.9718 38.7285 10.7019 38.4467 10.7091 38.1065C10.7162 37.7765 10.982 37.5106 11.312 37.5036H169.986C170.326 37.5108 170.596 37.7926 170.588 38.1328C170.581 38.4628 170.316 38.7287 169.986 38.7357Z" fill="#CCCCCC"/>
<path d="M115.91 59.4984H72.0461C68.7514 59.4984 66.0806 62.1692 66.0806 65.4638V65.4639C66.0806 68.7585 68.7514 71.4294 72.0461 71.4294H115.91C119.204 71.4294 121.875 68.7585 121.875 65.4638C121.875 62.1692 119.204 59.4984 115.91 59.4984Z" fill="white"/>
<path d="M43.7101 83.3604H144.246C147.541 83.3604 150.211 86.0312 150.211 89.3259C150.211 92.6205 147.541 95.2914 144.246 95.2914H43.7101C40.4155 95.2914 37.7446 92.6205 37.7446 89.3259C37.7446 86.0312 40.4155 83.3604 43.7101 83.3604Z" fill="white"/>
<path d="M43.7101 107.222H144.246C147.541 107.222 150.211 109.893 150.211 113.188C150.211 116.483 147.541 119.153 144.246 119.153H43.7101C40.4155 119.153 37.7446 116.483 37.7446 113.188C37.7446 109.893 40.4155 107.222 43.7101 107.222Z" fill="white"/>
<path d="M31.2511 224.308L31.0145 224.285C22.9867 223.457 15.7296 219.139 11.1712 212.479C9.92259 210.624 8.91262 208.618 8.16511 206.51L8.09326 206.309L8.30597 206.292C10.8455 206.088 13.4544 205.657 14.6134 205.452L7.14007 202.919L7.09386 202.698C6.65079 200.616 7.51881 198.474 9.2861 197.289C11.0582 196.046 13.4081 196.006 15.2212 197.188C16.0349 197.708 16.8859 198.223 17.7089 198.72C20.537 200.431 23.4615 202.2 25.654 204.621C28.9788 208.364 30.4361 213.408 29.6201 218.348L31.2511 224.308Z" fill="#F5F5F5"/>
<path d="M58.4165 220.592L62.0996 220.591L63.852 206.384L58.4155 206.384L58.4165 220.592Z" fill="#EC2AF0"/>
<path d="M58.2868 224.434L69.6135 224.433V224.29C69.6133 221.855 67.6396 219.882 65.2048 219.882L63.1356 218.312L59.2754 219.882L58.2866 219.882L58.2868 224.434Z" fill="#292929"/>
<path d="M28.8984 210.39L31.8445 212.6L41.7726 202.287L37.4239 199.025L28.8984 210.39Z" fill="#EC2AF0"/>
<path d="M26.4883 213.385L35.5488 220.183L35.6348 220.068C37.0958 218.12 36.7015 215.357 34.754 213.896L34.0408 211.398L30.0108 210.337L29.2199 209.744L26.4883 213.385Z" fill="#292929"/>
<path d="M41.1422 153.92C41.1422 153.92 41.3456 159.466 41.602 163.914C41.6441 164.643 39.9351 165.436 39.9793 166.229C40.0087 166.756 40.3299 167.268 40.3598 167.817C40.3913 168.396 39.9477 168.909 39.9793 169.508C40.0102 170.094 40.5162 170.765 40.5467 171.364C40.8751 177.813 42.0658 185.532 40.8735 187.69C40.286 188.754 32.7964 203.488 32.7964 203.488C32.7964 203.488 36.9693 209.747 38.1616 207.661C39.7363 204.905 51.8726 192.012 51.8726 189.55C51.8726 187.091 54.6804 168.662 54.6804 168.662L56.6382 179.568L57.5359 181.729L57.2538 182.997L57.8339 184.71L57.8653 186.404L58.4301 189.55C58.4301 189.55 56.7311 214.063 57.6879 214.746C58.6477 215.431 63.2945 216.662 63.8429 215.431C64.3884 214.2 67.9388 189.848 67.9388 189.848C67.9388 189.848 68.5111 178.689 69.1311 168.316C69.1669 167.714 69.5902 166.987 69.6229 166.393C69.6617 165.705 69.3934 164.811 69.4292 164.143C69.4679 163.377 69.8077 162.837 69.8405 162.104C70.0939 156.438 68.6716 149.538 68.2186 148.858C66.8504 146.808 65.6194 145.168 65.6194 145.168C65.6194 145.168 47.1923 139.114 42.2682 145.266L41.1422 153.92Z" fill="#292929"/>
<path d="M59.5208 96.8846L52.2159 95.4236L48.8069 100.05C42.446 106.305 42.3502 111.825 43.4857 120.673V133.091L42.6639 141.416C42.6639 141.416 39.7545 147.502 42.7552 148.918C45.756 150.335 65.4666 150.215 67.3485 149.649C69.2304 149.083 67.5992 148.389 67.105 145.753C66.1767 140.802 66.7976 143.19 66.8615 141.614C67.7774 118.999 65.644 109.715 65.4274 107.275L61.7123 100.537L59.5208 96.8846Z" fill="#2F0549"/>
<path d="M98.0222 115.118C97.2609 116.56 95.4743 117.113 94.0318 116.351C93.878 116.27 93.7317 116.176 93.5945 116.069L77.8188 126.085L77.8643 120.632L93.1892 111.738C94.2807 110.515 96.1578 110.407 97.3816 111.499C98.4057 112.412 98.6705 113.909 98.0222 115.118Z" fill="#EC2AF0"/>
<path d="M53.7531 103.2L51.957 103.01C50.2975 102.838 48.6693 103.549 47.6672 104.883C47.2834 105.389 47.0077 105.968 46.8573 106.585L46.8562 106.59C46.4057 108.447 47.1123 110.393 48.6493 111.528L54.8526 116.102C59.2058 121.984 67.3872 125.886 76.9841 129.057L91.9012 119.792L86.625 113.402L76.3933 118.886L61.1844 107.113L61.1757 107.106L55.3871 103.376L53.7531 103.2Z" fill="#2F0549"/>
<path d="M57.0523 93.2975C61.7569 93.2975 65.5708 89.4837 65.5708 84.779C65.5708 80.0743 61.7569 76.2604 57.0523 76.2604C52.3476 76.2604 48.5337 80.0743 48.5337 84.779C48.5337 89.4837 52.3476 93.2975 57.0523 93.2975Z" fill="#EC2AF0"/>
<path d="M57.2489 93.2994C57.1802 93.3016 57.1114 93.3032 57.0426 93.305C57.0132 93.3814 56.9815 93.4571 56.9448 93.5313L57.2489 93.2994Z" fill="#292929"/>
<path d="M59.5869 85.0153C59.6003 85.0992 59.6207 85.1819 59.648 85.2624C59.6367 85.178 59.6163 85.0952 59.5869 85.0153Z" fill="#292929"/>
<path d="M65.6797 76.6248C65.3291 77.7136 65.0161 76.3325 63.8627 76.581C62.4751 76.8798 60.8604 76.7772 59.7241 75.9266C58.031 74.6844 55.8369 74.35 53.8506 75.0314C51.9063 75.7193 48.6489 76.2043 48.1423 78.2035C47.9662 78.8984 47.8963 79.6526 47.4694 80.2285C47.0962 80.7321 46.5072 81.0192 46.0146 81.4067C44.3514 82.7154 45.6226 86.4333 46.4098 88.3978C47.197 90.3623 49.0027 91.7934 50.988 92.5264C52.9089 93.2357 54.9938 93.3608 57.0429 93.305C57.3993 92.3807 57.2454 91.313 56.9513 90.3548C56.6329 89.3174 56.1615 88.3162 56.0285 87.2392C55.8955 86.1622 56.1876 84.939 57.0906 84.3372C57.9206 83.7841 59.2713 84.121 59.587 85.0153C59.4028 83.8973 60.5353 82.8154 61.7031 82.6251C62.9569 82.4209 64.2106 82.8735 65.4607 83.0988C66.7109 83.3241 66.2672 78.061 65.6797 76.6248Z" fill="#292929"/>
<path d="M113.322 98.8704C114.116 89.2753 106.982 80.8532 97.3864 80.0591C87.7913 79.265 79.3692 86.3996 78.5751 95.9947C77.781 105.59 84.9156 114.012 94.5107 114.806C104.106 115.6 112.528 108.466 113.322 98.8704Z" fill="#7811CA"/>
<path d="M100.528 90.1688L95.9486 94.7481L91.3693 90.1688C90.628 89.4276 89.4261 89.4276 88.6849 90.1688C87.9436 90.9101 87.9436 92.112 88.6849 92.8533L93.2642 97.4326L88.6849 102.012C87.9443 102.754 87.9454 103.956 88.6874 104.696C89.4284 105.436 90.6283 105.436 91.3693 104.696L95.9486 100.117L100.528 104.696C101.27 105.437 102.472 105.436 103.212 104.694C103.952 103.953 103.952 102.753 103.212 102.012L98.633 97.4326L103.212 92.8533C103.954 92.112 103.954 90.9101 103.212 90.1688C102.471 89.4276 101.269 89.4276 100.528 90.1688Z" fill="white"/>
<path d="M89.0786 82.7801C89.5925 84.3282 88.7541 85.9997 87.2061 86.5136C87.0411 86.5683 86.8715 86.6085 86.6994 86.6334L83.006 104.952L79.1021 101.143L83.2941 83.9281C83.1667 82.2931 84.3888 80.8644 86.0238 80.737C87.3918 80.6304 88.6548 81.475 89.0786 82.7801Z" fill="#EC2AF0"/>
<path d="M49.8316 106.474L48.4508 107.639C47.1777 108.717 46.5634 110.384 46.8322 112.031C46.9315 112.658 47.1588 113.258 47.4999 113.793L47.5027 113.798C48.5308 115.408 50.4243 116.246 52.3076 115.923L59.9023 114.613C67.1607 115.544 75.6408 112.341 84.5726 107.611L88.2146 90.4332L79.9507 89.8166L76.8241 100.996L57.7994 103.82L57.7882 103.822L51.0896 105.417L49.8316 106.474Z" fill="#2F0549"/>
<path d="M93.0765 224.728L0.404733 224.833C0.180483 224.832 -0.000724193 224.65 2.17613e-06 224.425C0.000721725 224.202 0.181502 224.021 0.404733 224.021L93.0765 223.916C93.3007 223.917 93.4819 224.099 93.4812 224.323C93.4805 224.546 93.2997 224.727 93.0765 224.728Z" fill="#CCCCCC"/>
<path d="M19.3619 30.9315C20.9546 30.9315 22.2457 29.6116 22.2457 27.9834C22.2457 26.3552 20.9546 25.0353 19.3619 25.0353C17.7692 25.0353 16.478 26.3552 16.478 27.9834C16.478 29.6116 17.7692 30.9315 19.3619 30.9315Z" fill="#2F0549"/>
<path d="M29.3243 30.9315C30.917 30.9315 32.2082 29.6116 32.2082 27.9834C32.2082 26.3552 30.917 25.0353 29.3243 25.0353C27.7316 25.0353 26.4404 26.3552 26.4404 27.9834C26.4404 29.6116 27.7316 30.9315 29.3243 30.9315Z" fill="#2F0549"/>
<path d="M39.2867 30.9315C40.8794 30.9315 42.1706 29.6116 42.1706 27.9834C42.1706 26.3552 40.8794 25.0353 39.2867 25.0353C37.694 25.0353 36.4028 26.3552 36.4028 27.9834C36.4028 29.6116 37.694 30.9315 39.2867 30.9315Z" fill="#2F0549"/>
<path d="M50.6468 30.3135C50.5582 30.3135 50.4698 30.2792 50.403 30.2109L48.4571 28.2218C48.3274 28.0892 48.3274 27.8774 48.4571 27.7449L50.403 25.7559C50.5351 25.6213 50.7512 25.6192 50.8852 25.7505C51.0199 25.8823 51.0223 26.0982 50.8906 26.2328L49.178 27.9833L50.8906 29.734C51.0223 29.8686 51.0199 30.0845 50.8852 30.2163C50.819 30.2812 50.7329 30.3135 50.6468 30.3135Z" fill="#2F0549"/>
<path d="M53.9162 30.3135C53.8302 30.3135 53.7441 30.2812 53.6778 30.2163C53.5431 30.0846 53.5407 29.8688 53.6725 29.734L55.3849 27.9833L53.6725 26.2328C53.5408 26.0982 53.5431 25.8823 53.6778 25.7506C53.8122 25.6187 54.0283 25.6212 54.16 25.7559L56.1057 27.7449C56.2354 27.8774 56.2354 28.0892 56.1057 28.2218L54.16 30.2109C54.0932 30.2792 54.0048 30.3135 53.9162 30.3135Z" fill="#2F0549"/>
<path d="M109.533 26.9248H80.6107C80.106 26.9248 79.7002 27.334 79.7002 27.8353C79.7002 28.3366 80.106 28.7458 80.6107 28.7458H109.533C110.034 28.7458 110.443 28.3366 110.443 27.8353C110.443 27.3341 110.034 26.9248 109.533 26.9248Z" fill="#2F0549"/>
</g>
<defs>
<clipPath id="clip0_2014_1570">
<rect width="200" height="224.833" fill="white"/>
</clipPath>
</defs>
</svg>
