<svg width="24" height="24" viewBox="0 0 24 24" fill="none" xmlns="http://www.w3.org/2000/svg">
<g clip-path="url(#clip0_2014_378)">
<path d="M14.3401 0C15.7094 0 17.0042 0.623489 17.8581 1.694L21.518 6.28261C22.1538 7.07969 22.5 8.06904 22.5 9.08861V19.5C22.5 21.9853 20.4853 24 18 24H6C3.51472 24 1.5 21.9853 1.5 19.5V4.5C1.5 2.01472 3.51472 0 6 0H14.3401ZM14.3401 1.5H6C4.39335 1.5 3.08169 2.76298 3.00367 4.35027L3 4.5V19.5C3 21.1066 4.26298 22.4183 5.85027 22.4963L6 22.5H18C19.6066 22.5 20.9183 21.237 20.9963 19.6497L21 19.5V9.08861C21 8.47069 20.8092 7.86942 20.4561 7.36597L20.3453 7.21795L16.6854 2.62934C16.1518 1.96026 15.3597 1.55312 14.5106 1.50484L14.3401 1.5ZM16.6163 8.50736C18.0422 9.93329 18.0797 12.2219 16.7288 13.6932L16.6163 13.8107L14.4656 15.9659L14.4185 16.0189L12.6843 17.7426C11.2198 19.2071 8.84546 19.2071 7.381 17.7426C5.91652 16.2782 5.91653 13.9038 7.38328 12.4371L7.90644 11.9175L8.38033 11.4439L8.44559 11.3854L9.10028 10.7303C9.97896 9.85165 11.4036 9.85165 12.2823 10.7303C13.1296 11.5776 13.1598 12.9326 12.373 13.8161L12.2823 13.9123L10.5861 15.6085C10.2932 15.9014 9.81835 15.9014 9.52545 15.6085C9.25348 15.3365 9.23405 14.9076 9.46717 14.6132L9.52545 14.5478L11.2216 12.8516C11.5145 12.5588 11.5145 12.0839 11.2216 11.791C10.9496 11.519 10.5207 11.4996 10.2264 11.7327L10.1609 11.791L8.44502 13.5069L8.38218 13.5619L8.35087 13.5962C7.56409 14.4797 7.59435 15.8347 8.44166 16.682C9.28895 17.5293 10.6439 17.5595 11.5289 16.7713L11.6252 16.6804L12.9117 15.4005L15.5556 12.75C16.4343 11.8713 16.4343 10.4467 15.5556 9.56802C14.7578 8.7702 13.495 8.68939 12.6059 9.36513C12.2761 9.61578 11.8056 9.55164 11.555 9.22187C11.3043 8.8921 11.3685 8.42158 11.6982 8.17093C13.1825 7.04275 15.2863 7.17737 16.6163 8.50736Z" fill="#7811CA"/>
</g>
<defs>
<clipPath id="clip0_2014_378">
<rect width="24" height="24" fill="white"/>
</clipPath>
</defs>
</svg>
