<svg width="24" height="23" viewBox="0 0 24 23" fill="none" xmlns="http://www.w3.org/2000/svg">
<path d="M22.5 15.6247C22.4999 20.9167 21.3333 21.5 12 21.5C2.6667 21.5 1.49999 20.3333 1.50004 15.6247C1.50007 13.1265 1.5 13.705 1.5 11.5184C1.5 9.33184 2.17053 8.08333 6.10147 4.92105C7.88526 3.48606 9.40717 2.34916 10.4581 1.58776C11.3928 0.910569 12.6257 0.882603 13.5645 1.5541C14.5366 2.24938 15.9718 3.33107 17.8985 4.92105C21.9167 8.23684 22.5 9.25 22.5 11.5184C22.4999 15.9052 22.5 11.9598 22.5 15.6247Z" stroke="black" stroke-width="2" stroke-linecap="round" stroke-linejoin="round"/>
<path d="M8.5 18C8.5 15.6667 8.5 14.5 12 14.5C15.5 14.5 15.5 15.6667 15.5 18" stroke="black" stroke-width="2" stroke-linecap="round" stroke-linejoin="round"/>
</svg>
