<svg width="100" height="44" viewBox="0 0 100 44" fill="none" xmlns="http://www.w3.org/2000/svg">
<path d="M74.3662 2.80255C74.3662 4.35035 73.105 5.60509 71.5493 5.60509C69.9936 5.60509 68.7324 4.35035 68.7324 2.80255C68.7324 1.25474 69.9936 0 71.5493 0C73.105 0 74.3662 1.25474 74.3662 2.80255Z" fill="#7811CA"/>
<path d="M68.7324 28.8662V10.0892C68.7324 8.85093 69.7413 7.84713 70.9859 7.84713H74.3662V28.8662H68.7324Z" fill="#7811CA"/>
<path d="M0 3.64331H2.4338C4.82342 3.64331 6.76056 5.66777 6.76056 8.16507L6.76059 20.4586C0.868906 19.3042 0.0375198 17.914 0.000915951 15.0417C0.000306301 15.0104 0 14.9791 0 14.9477V3.64331Z" fill="#7811CA"/>
<path d="M13.5211 22.2286C1.72736 22.1769 0 20.2374 0 18.7771V22.4941C0 26.0133 3.02682 28.8662 6.76056 28.8662H18.5915V26.4767C18.5915 24.1305 16.5737 22.2286 14.0845 22.2286H13.5211Z" fill="#7811CA"/>
<path d="M30.9859 28.8662C24.918 28.8662 20.8451 25.3838 20.8451 18.4603V7.84713H24.2229C25.4666 7.84713 26.4748 8.85114 26.4748 10.0897V15.4157H26.4558V18.4603C26.4558 22.0257 28.2845 23.6426 30.9859 23.6426C33.6874 23.6426 35.516 22.0257 35.516 18.4603V7.84713H41.1268V18.4603C41.1268 25.3423 37.0538 28.8662 30.9859 28.8662Z" fill="#7811CA"/>
<path d="M45.6338 28.8662H51.351V17.0922C51.351 14.0658 52.8333 13.0708 54.9508 13.0708C57.0259 13.0708 58.5081 14.0658 58.5081 17.0922V17.2995H64.2254V17.1751C64.183 10.7906 60.4562 7.84713 54.9508 7.84713C53.1883 7.84713 51.6054 8.14837 50.2658 8.76016C49.8555 8.20638 49.1953 7.84713 48.4507 7.84713L45.6338 7.84713V28.8662Z" fill="#7811CA"/>
<path fill-rule="evenodd" clip-rule="evenodd" d="M78.8732 18.4596C78.8732 25.242 83.9755 28.5933 88.5198 28.5933C91.5094 28.5933 93.941 27.1969 95.0571 24.5238L95.0613 24.5268V26.6824C95.0613 27.8885 96.044 28.8662 97.2563 28.8662H100V18.4197C100 11.9964 95.6949 7.84713 89.5163 7.84713C83.258 7.84713 78.8732 12.1161 78.8732 18.4596ZM94.6187 18.2202C94.6187 21.372 92.5458 23.5663 89.4765 23.5663C86.4071 23.5663 84.3343 21.372 84.3343 18.2202C84.3343 15.0684 86.4071 12.8741 89.4765 12.8741C92.5458 12.8741 94.6187 15.0684 94.6187 18.2202Z" fill="#7811CA"/>
<path fill-rule="evenodd" clip-rule="evenodd" d="M85.4628 38.5498C85.4628 36.7097 86.8423 35.1041 88.6388 35.0343H88.6376C90.686 34.9548 92.3383 36.7832 92.0344 38.9207C91.8251 40.3923 90.6399 41.5786 89.1982 41.7659C88.3224 41.8797 87.504 41.641 86.8567 41.1709V43.0403L86.015 43.9022C85.8116 44.1109 85.4628 43.9634 85.4628 43.6684V38.5498ZM86.8573 38.4127C86.8573 39.4925 87.7122 40.3672 88.7675 40.3672C89.8228 40.3672 90.6776 39.4925 90.6776 38.4127C90.6776 37.3329 89.8228 36.4582 88.7675 36.4582C87.7122 36.4582 86.8573 37.3329 86.8573 38.4127Z" fill="#7811CA"/>
<path d="M99.9016 35.8848L97.2172 38.3961L99.8991 40.905C100.109 41.1012 99.9608 41.4377 99.6635 41.4377H98.4352L92.4995 35.8848C92.2892 35.688 92.4379 35.3521 92.7352 35.3521H93.9628L96.2003 37.4453L98.4377 35.3521H99.6659C99.9626 35.3521 100.112 35.688 99.9016 35.8848Z" fill="#7811CA"/>
<path fill-rule="evenodd" clip-rule="evenodd" d="M67.0856 41.5376C65.8407 41.5376 64.9685 40.7151 64.9685 39.4929C64.9685 38.1861 65.9755 37.5404 66.8953 37.5404C67.4107 37.5404 67.8389 37.7402 68.1006 38.1246V35.9799H69.171V39.5005C69.171 40.7612 68.2988 41.5376 67.0856 41.5376ZM67.0777 40.569C67.6882 40.569 68.1006 40.1463 68.1006 39.539C68.1006 38.9317 67.6882 38.5089 67.0777 38.5089C66.4671 38.5089 66.0548 38.9317 66.0548 39.539C66.0548 40.1463 66.4671 40.569 67.0777 40.569Z" fill="#7811CA"/>
<path fill-rule="evenodd" clip-rule="evenodd" d="M35.7746 36.4104V41.4377H36.9323V39.8926H37.8521C39.2319 39.8926 39.8503 39.1546 39.8503 38.1476C39.8503 37.1483 39.2319 36.4104 37.8521 36.4104H35.7746ZM37.868 38.8548H36.9323V37.4481H37.868C38.4786 37.4481 38.6768 37.7479 38.6768 38.1476C38.6768 38.555 38.4786 38.8548 37.868 38.8548Z" fill="#7811CA"/>
<path fill-rule="evenodd" clip-rule="evenodd" d="M40.2434 39.539C40.2434 40.692 41.1156 41.5376 42.3526 41.5376C43.5895 41.5376 44.4618 40.692 44.4618 39.539C44.4618 38.3859 43.5895 37.5404 42.3526 37.5404C41.1156 37.5404 40.2434 38.3859 40.2434 39.539ZM43.3755 39.539C43.3755 40.1463 42.9631 40.569 42.3526 40.569C41.742 40.569 41.3297 40.1463 41.3297 39.539C41.3297 38.9317 41.742 38.5089 42.3526 38.5089C42.9631 38.5089 43.3755 38.9317 43.3755 39.539Z" fill="#7811CA"/>
<path d="M46.7442 41.5376C45.8006 41.5376 45.079 40.9995 45.079 39.7926V37.6403H46.1495V39.7926C46.1495 40.3538 46.4429 40.569 46.8473 40.569C47.2438 40.569 47.5451 40.3538 47.5451 39.7926V37.6403H48.6155V39.7926C48.6155 40.3538 48.9089 40.569 49.3054 40.569C49.7098 40.569 50.0032 40.3538 50.0032 39.7926V37.6403H51.0737V39.7926C51.0737 40.9995 50.3521 41.5376 49.4085 41.5376C48.8296 41.5376 48.3618 41.3147 48.0763 40.8919C47.783 41.3147 47.3151 41.5376 46.7442 41.5376Z" fill="#7811CA"/>
<path fill-rule="evenodd" clip-rule="evenodd" d="M51.6883 39.539C51.6883 40.692 52.5605 41.5376 53.7975 41.5376C54.749 41.5376 55.4785 41.0379 55.7561 40.2846H54.6301C54.4557 40.5152 54.1781 40.6075 53.7975 40.6075C53.3059 40.6075 52.9174 40.3615 52.8063 39.8618H55.8829V39.539C55.8829 38.3859 55.0345 37.5404 53.7975 37.5404C52.5605 37.5404 51.6883 38.3859 51.6883 39.539ZM54.7728 39.1316H52.8301C52.9649 38.6934 53.3297 38.4705 53.7975 38.4705C54.2574 38.4705 54.6301 38.6857 54.7728 39.1316Z" fill="#7811CA"/>
<path d="M56.5007 41.4377V39.2546C56.5007 38.0938 57.2065 37.5404 58.2452 37.5404C59.276 37.5404 59.9738 38.0861 59.9818 39.2699V39.293H58.9113V39.2546C58.9113 38.6934 58.6338 38.5089 58.2452 38.5089C57.8487 38.5089 57.5712 38.6934 57.5712 39.2546V41.4377H56.5007Z" fill="#7811CA"/>
<path fill-rule="evenodd" clip-rule="evenodd" d="M60.3146 39.539C60.3146 40.692 61.1868 41.5376 62.4238 41.5376C63.3753 41.5376 64.1048 41.0379 64.3824 40.2846H63.2564C63.082 40.5152 62.8044 40.6075 62.4238 40.6075C61.9322 40.6075 61.5437 40.3615 61.4326 39.8618H64.5092V39.539C64.5092 38.3859 63.6608 37.5404 62.4238 37.5404C61.1868 37.5404 60.3146 38.3859 60.3146 39.539ZM63.3991 39.1316H61.4564C61.5912 38.6934 61.956 38.4705 62.4238 38.4705C62.8837 38.4705 63.2564 38.6857 63.3991 39.1316Z" fill="#7811CA"/>
<path fill-rule="evenodd" clip-rule="evenodd" d="M72.0575 39.5005C72.0575 40.7612 72.9297 41.5376 74.1429 41.5376C75.3878 41.5376 76.2601 40.7151 76.2601 39.4929C76.2601 38.1861 75.2531 37.5404 74.3332 37.5404C73.8178 37.5404 73.3896 37.7402 73.128 38.1246V35.9799H72.0575V39.5005ZM75.1738 39.539C75.1738 40.1463 74.7614 40.569 74.1509 40.569C73.5403 40.569 73.128 40.1463 73.128 39.539C73.128 38.9317 73.5403 38.5089 74.1509 38.5089C74.7614 38.5089 75.1738 38.9317 75.1738 39.539Z" fill="#7811CA"/>
<path d="M78.8086 43.1595C77.8808 43.1595 77.1196 42.7445 76.9135 41.8297H77.9839C78.1187 42.1295 78.3804 42.2602 78.8086 42.2602C79.3874 42.2602 79.6808 41.9911 79.6808 41.3377V40.915C79.4509 41.2839 79.0782 41.4838 78.6103 41.4838C77.754 41.4838 76.8817 40.9303 76.8817 39.5544V37.6403H77.9522V39.5544C77.9522 40.2154 78.3011 40.5152 78.8165 40.5152C79.3161 40.5152 79.6808 40.2001 79.6808 39.5544V37.6403H80.7513V41.307C80.7513 42.6292 79.879 43.1595 78.8086 43.1595Z" fill="#7811CA"/>
<path d="M92.7268 41.4377C92.4373 41.4377 92.292 41.105 92.4968 40.9101L94.6343 38.8753C95.1807 39.3955 95.1807 40.2391 94.6343 40.7592L93.9216 41.4377H92.7268Z" fill="#7811CA"/>
</svg>
