<svg width="16" height="16" viewBox="0 0 16 16" fill="none" xmlns="http://www.w3.org/2000/svg">
<path fill-rule="evenodd" clip-rule="evenodd" d="M7.33325 0.166687C3.7434 0.166687 0.833252 3.07684 0.833252 6.66669C0.833252 10.2565 3.7434 13.1667 7.33325 13.1667C10.9231 13.1667 13.8333 10.2565 13.8333 6.66669C13.8333 3.07684 10.9231 0.166687 7.33325 0.166687ZM1.83325 6.66669C1.83325 3.62912 4.29569 1.16669 7.33325 1.16669C10.3708 1.16669 12.8333 3.62912 12.8333 6.66669C12.8333 9.70425 10.3708 12.1667 7.33325 12.1667C4.29569 12.1667 1.83325 9.70425 1.83325 6.66669Z" fill="black"/>
<path d="M13.0202 11.6465C12.8249 11.4513 12.5083 11.4513 12.3131 11.6465C12.1178 11.8418 12.1178 12.1584 12.3131 12.3536L14.9797 15.0203C15.1749 15.2155 15.4915 15.2155 15.6868 15.0203C15.882 14.825 15.882 14.5084 15.6868 14.3132L13.0202 11.6465Z" fill="black"/>
</svg>
