<svg width="67" height="32" viewBox="0 0 67 32" fill="none" xmlns="http://www.w3.org/2000/svg">
<rect x="0.5" y="0.5" width="66" height="31" rx="15.5" stroke="#F08F13"/>
<path d="M14.6667 12.1667C13.6541 12.1667 12.8333 12.9875 12.8333 14V14.6667C12.8333 14.9428 13.0572 15.1667 13.3333 15.1667C13.6095 15.1667 13.8333 14.9428 13.8333 14.6667V14C13.8333 13.5398 14.2064 13.1667 14.6667 13.1667H15.5V18.8333H14.6667C14.3905 18.8333 14.1667 19.0572 14.1667 19.3333C14.1667 19.6095 14.3905 19.8333 14.6667 19.8333H17.3333C17.6095 19.8333 17.8333 19.6095 17.8333 19.3333C17.8333 19.0572 17.6095 18.8333 17.3333 18.8333H16.5V13.1667H17.3333C17.7936 13.1667 18.1667 13.5398 18.1667 14V14.6667C18.1667 14.9428 18.3905 15.1667 18.6667 15.1667C18.9428 15.1667 19.1667 14.9428 19.1667 14.6667V14C19.1667 12.9875 18.3459 12.1667 17.3333 12.1667H14.6667Z" fill="#F08F13"/>
<path fill-rule="evenodd" clip-rule="evenodd" d="M18.9757 9.58249C18.2143 9.49999 17.2545 9.49999 16.0302 9.5H15.9698C14.7455 9.49999 13.7857 9.49999 13.0243 9.58249C12.2473 9.66667 11.6177 9.84155 11.0802 10.2321C10.7547 10.4685 10.4685 10.7547 10.2321 11.0802C9.84155 11.6177 9.66667 12.2473 9.58249 13.0243C9.49999 13.7857 9.49999 14.7455 9.5 15.9698V16.0302C9.49999 17.2545 9.49999 18.2143 9.58249 18.9757C9.66667 19.7527 9.84155 20.3823 10.2321 20.9198C10.4685 21.2453 10.7547 21.5315 11.0802 21.7679C11.6177 22.1585 12.2473 22.3333 13.0243 22.4175C13.7857 22.5 14.7454 22.5 15.9698 22.5H16.0302C17.2545 22.5 18.2143 22.5 18.9757 22.4175C19.7527 22.3333 20.3823 22.1585 20.9198 21.7679C21.2453 21.5315 21.5315 21.2453 21.7679 20.9198C22.1585 20.3823 22.3333 19.7527 22.4175 18.9757C22.5 18.2143 22.5 17.2546 22.5 16.0302V15.9698C22.5 14.7455 22.5 13.7857 22.4175 13.0243C22.3333 12.2473 22.1585 11.6177 21.7679 11.0802C21.5315 10.7547 21.2453 10.4685 20.9198 10.2321C20.3823 9.84155 19.7527 9.66667 18.9757 9.58249ZM11.6679 11.0411C12.0066 10.7951 12.4401 10.6516 13.132 10.5767C13.8333 10.5007 14.739 10.5 16 10.5C17.261 10.5 18.1667 10.5007 18.868 10.5767C19.5599 10.6516 19.9934 10.7951 20.3321 11.0411C20.5726 11.2159 20.7841 11.4274 20.9589 11.6679C21.2049 12.0066 21.3484 12.4401 21.4233 13.132C21.4993 13.8333 21.5 14.739 21.5 16C21.5 17.261 21.4993 18.1667 21.4233 18.868C21.3484 19.5599 21.2049 19.9934 20.9589 20.3321C20.7841 20.5726 20.5726 20.7841 20.3321 20.9589C19.9934 21.2049 19.5599 21.3484 18.868 21.4233C18.1667 21.4993 17.261 21.5 16 21.5C14.739 21.5 13.8333 21.4993 13.132 21.4233C12.4401 21.3484 12.0066 21.2049 11.6679 20.9589C11.4274 20.7841 11.2159 20.5726 11.0411 20.3321C10.7951 19.9934 10.6516 19.5599 10.5767 18.868C10.5007 18.1667 10.5 17.261 10.5 16C10.5 14.739 10.5007 13.8333 10.5767 13.132C10.6516 12.4401 10.7951 12.0066 11.0411 11.6679C11.2159 11.4274 11.4274 11.2159 11.6679 11.0411Z" fill="#F08F13"/>
<path d="M36.0582 11.2727V20H34.4645L30.6676 14.5071H30.6037V20H28.7585V11.2727H30.3778L34.1449 16.7614H34.2216V11.2727H36.0582ZM40.506 20.1278C39.8441 20.1278 39.2717 19.9872 38.7887 19.706C38.3086 19.4219 37.9379 19.027 37.6765 18.5213C37.4151 18.0128 37.2844 17.4233 37.2844 16.7528C37.2844 16.0767 37.4151 15.4858 37.6765 14.9801C37.9379 14.4716 38.3086 14.0767 38.7887 13.7955C39.2717 13.5114 39.8441 13.3693 40.506 13.3693C41.168 13.3693 41.739 13.5114 42.2191 13.7955C42.7021 14.0767 43.0742 14.4716 43.3356 14.9801C43.5969 15.4858 43.7276 16.0767 43.7276 16.7528C43.7276 17.4233 43.5969 18.0128 43.3356 18.5213C43.0742 19.027 42.7021 19.4219 42.2191 19.706C41.739 19.9872 41.168 20.1278 40.506 20.1278ZM40.5146 18.7216C40.8157 18.7216 41.0671 18.6364 41.2688 18.4659C41.4705 18.2926 41.6225 18.0568 41.7248 17.7585C41.8299 17.4602 41.8825 17.1207 41.8825 16.7401C41.8825 16.3594 41.8299 16.0199 41.7248 15.7216C41.6225 15.4233 41.4705 15.1875 41.2688 15.0142C41.0671 14.8409 40.8157 14.7543 40.5146 14.7543C40.2106 14.7543 39.9549 14.8409 39.7475 15.0142C39.543 15.1875 39.3881 15.4233 39.283 15.7216C39.1808 16.0199 39.1296 16.3594 39.1296 16.7401C39.1296 17.1207 39.1808 17.4602 39.283 17.7585C39.3881 18.0568 39.543 18.2926 39.7475 18.4659C39.9549 18.6364 40.2106 18.7216 40.5146 18.7216ZM50.7994 13.4545L48.511 20H46.4656L44.1772 13.4545H46.0948L47.4542 18.1378H47.5224L48.8775 13.4545H50.7994ZM54.4748 20.1278C53.8129 20.1278 53.2404 19.9872 52.7575 19.706C52.2773 19.4219 51.9066 19.027 51.6452 18.5213C51.3839 18.0128 51.2532 17.4233 51.2532 16.7528C51.2532 16.0767 51.3839 15.4858 51.6452 14.9801C51.9066 14.4716 52.2773 14.0767 52.7575 13.7955C53.2404 13.5114 53.8129 13.3693 54.4748 13.3693C55.1367 13.3693 55.7077 13.5114 56.1879 13.7955C56.6708 14.0767 57.043 14.4716 57.3043 14.9801C57.5657 15.4858 57.6964 16.0767 57.6964 16.7528C57.6964 17.4233 57.5657 18.0128 57.3043 18.5213C57.043 19.027 56.6708 19.4219 56.1879 19.706C55.7077 19.9872 55.1367 20.1278 54.4748 20.1278ZM54.4833 18.7216C54.7844 18.7216 55.0359 18.6364 55.2376 18.4659C55.4393 18.2926 55.5913 18.0568 55.6935 17.7585C55.7987 17.4602 55.8512 17.1207 55.8512 16.7401C55.8512 16.3594 55.7987 16.0199 55.6935 15.7216C55.5913 15.4233 55.4393 15.1875 55.2376 15.0142C55.0359 14.8409 54.7844 14.7543 54.4833 14.7543C54.1793 14.7543 53.9237 14.8409 53.7163 15.0142C53.5117 15.1875 53.3569 15.4233 53.2518 15.7216C53.1495 16.0199 53.0984 16.3594 53.0984 16.7401C53.0984 17.1207 53.1495 17.4602 53.2518 17.7585C53.3569 18.0568 53.5117 18.2926 53.7163 18.4659C53.9237 18.6364 54.1793 18.7216 54.4833 18.7216Z" fill="#F08F13"/>
</svg>
