<svg width="16" height="16" viewBox="0 0 16 16" fill="none" xmlns="http://www.w3.org/2000/svg">
<path d="M9.33342 8.00001C9.33342 8.73639 8.73646 9.33334 8.00008 9.33334C7.2637 9.33334 6.66675 8.73639 6.66675 8.00001C6.66675 7.26363 7.2637 6.66668 8.00008 6.66668C8.73646 6.66668 9.33342 7.26363 9.33342 8.00001Z" fill="black"/>
<path d="M9.33342 2.66668C9.33342 3.40306 8.73646 4.00001 8.00008 4.00001C7.2637 4.00001 6.66675 3.40306 6.66675 2.66668C6.66675 1.9303 7.2637 1.33334 8.00008 1.33334C8.73646 1.33334 9.33342 1.9303 9.33342 2.66668Z" fill="black"/>
<path d="M9.33342 13.3333C9.33342 14.0697 8.73646 14.6667 8.00008 14.6667C7.2637 14.6667 6.66675 14.0697 6.66675 13.3333C6.66675 12.597 7.2637 12 8.00008 12C8.73646 12 9.33342 12.597 9.33342 13.3333Z" fill="black"/>
</svg>
